<svg width="28" height="28" viewBox="0 0 28 28" fill="none" xmlns="http://www.w3.org/2000/svg">
<g clip-path="url(#clip0_9158_35720)">
<path d="M22.2578 28H5.74219C2.57595 28 0 25.4241 0 22.2578V5.74219C0 2.57595 2.57595 0 5.74219 0H22.2578C25.4241 0 28 2.57595 28 5.74219V22.2578C28 25.4241 25.4241 28 22.2578 28Z" fill="#00AAF0"/>
<path d="M22.2578 0H14V28H22.2578C25.424 28 28 25.4241 28 22.2578V5.74219C28 2.57595 25.424 0 22.2578 0Z" fill="#00AAF0"/>
<path d="M8.62135 21.5755C8.36842 22.0136 7.90789 22.2588 7.43501 22.2588C7.20319 22.2588 6.96847 22.1999 6.75371 22.076C6.10086 21.6991 5.87636 20.8613 6.25327 20.2084L6.52217 19.7427H9.67955L8.62135 21.5755Z" fill="white"/>
<path d="M6.04292 18.6485C5.28906 18.6485 4.67574 18.0352 4.67574 17.2813C4.67574 16.5275 5.28906 15.9142 6.04292 15.9142H8.73234L12.4212 9.5248L11.4215 7.79318C11.0446 7.14032 11.269 6.30251 11.9219 5.92554C12.5747 5.54864 13.4126 5.77318 13.7895 6.42599L14 6.79048L14.2104 6.42604C14.5875 5.77313 15.4253 5.54869 16.078 5.9256C16.3942 6.1082 16.6205 6.40302 16.715 6.75576C16.8095 7.10849 16.761 7.47697 16.5784 7.79323L11.8897 15.9142H14.8472L16.4259 18.6485H6.04292Z" fill="white"/>
<path d="M21.9571 18.6497H20.8463L21.7467 20.2091C22.1236 20.8619 21.8991 21.6997 21.2463 22.0767C21.0356 22.1983 20.8018 22.2605 20.5649 22.2605C20.4461 22.2605 20.3266 22.2449 20.2088 22.2133C19.856 22.1187 19.5612 21.8925 19.3786 21.5762L14.6315 13.354L16.2101 10.6196L19.2677 15.9153H21.9571C22.711 15.9153 23.3243 16.5286 23.3243 17.2825C23.3243 18.0363 22.711 18.6497 21.9571 18.6497Z" fill="white"/>
<path d="M14 15.915V18.6494H16.426L14.8473 15.915H14Z" fill="white"/>
<path d="M16.715 6.75574C16.6204 6.403 16.3942 6.10813 16.078 5.92558C15.4252 5.54867 14.5874 5.77306 14.2104 6.42603L14 6.79046V12.2592L16.5784 7.79321C16.761 7.47696 16.8095 7.10853 16.715 6.75574Z" fill="white"/>
</g>
<defs>
<clipPath id="clip0_9158_35720">
<rect width="28" height="28" fill="white"/>
</clipPath>
</defs>
</svg>
