<svg width="28" height="28" viewBox="0 0 28 28" fill="none" xmlns="http://www.w3.org/2000/svg">
<g clip-path="url(#clip0_9158_35731)">
<path d="M3.38004 4.87823C9.88825 -2.69572 21.9562 -1.20123 26.4659 7.64672C23.2897 7.64847 18.3179 7.64497 15.6247 7.64672C13.6717 7.64672 12.41 7.60297 11.045 8.32221C9.44025 9.16746 8.22751 10.7337 7.80576 12.5747L3.38004 4.87823Z" fill="#F44336"/>
<path d="M9.34247 14.0012C9.34247 16.5684 11.4302 18.6561 13.9957 18.6561C16.5612 18.6561 18.6489 16.5684 18.6489 14.0012C18.6489 11.4339 16.5612 9.34619 13.9957 9.34619C11.4285 9.34444 9.34247 11.4339 9.34247 14.0012Z" fill="#2196F3"/>
<path d="M15.8003 20.0944C13.1893 20.8696 10.1321 20.0104 8.45913 17.1194C7.18163 14.9144 3.80415 9.03267 2.27116 6.35693C-3.1048 14.5959 1.52742 25.8221 11.2854 27.7383L15.8003 20.0944Z" fill="#4CAF50"/>
<path d="M18.3159 9.34355C20.4912 11.3665 20.9654 14.6425 19.4919 17.1818C18.3824 19.0962 14.8387 25.076 13.1219 27.9704C23.1756 28.5899 30.5046 18.7375 27.1936 9.3418L18.3159 9.34355Z" fill="#FFC107"/>
</g>
<defs>
<clipPath id="clip0_9158_35731">
<rect x="3.05176e-05" width="28" height="28" rx="14" fill="white"/>
</clipPath>
</defs>
</svg>
