<svg width="36" height="36" viewBox="0 0 36 36" fill="none" xmlns="http://www.w3.org/2000/svg">
<rect width="36" height="36" rx="6" fill="#0EA982"/>
<path d="M11.0778 23.7812C9.91635 23.7812 8.96323 23.4635 8.21844 22.8281C7.47365 22.1927 7.07781 21.375 7.03094 20.375H8.92156C8.98406 20.8906 9.21583 21.3073 9.61687 21.625C10.0179 21.9427 10.5101 22.1016 11.0934 22.1016C11.7549 22.1016 12.2887 21.8984 12.695 21.4922C13.1065 21.0807 13.3122 20.5391 13.3122 19.8672C13.3122 19.1953 13.1065 18.651 12.695 18.2344C12.2887 17.8125 11.7601 17.6016 11.1091 17.6016C10.6507 17.6016 10.2419 17.6979 9.8825 17.8906C9.52833 18.0833 9.24708 18.3568 9.03875 18.7109H7.21062L7.79656 12.2266H14.5856V13.9297H9.35906L9.08562 17.0938H9.21844C9.73927 16.3906 10.5335 16.0391 11.6012 16.0391C12.669 16.0391 13.544 16.3932 14.2262 17.1016C14.9137 17.8099 15.2575 18.7161 15.2575 19.8203C15.2575 20.9974 14.8721 21.9531 14.1012 22.6875C13.3356 23.4167 12.3278 23.7812 11.0778 23.7812ZM17.9141 23.6641C17.5495 23.6641 17.25 23.5469 17.0156 23.3125C16.7812 23.0781 16.6641 22.7839 16.6641 22.4297C16.6641 22.0703 16.7812 21.776 17.0156 21.5469C17.25 21.3125 17.5495 21.1953 17.9141 21.1953C18.2839 21.1953 18.5833 21.3125 18.8125 21.5469C19.0469 21.776 19.1641 22.0703 19.1641 22.4297C19.1641 22.7839 19.0469 23.0781 18.8125 23.3125C18.5833 23.5469 18.2839 23.6641 17.9141 23.6641ZM24.8441 23.7812C23.4899 23.7812 22.4326 23.2604 21.6722 22.2188C20.917 21.1771 20.5394 19.7214 20.5394 17.8516C20.5394 15.9922 20.9196 14.5443 21.68 13.5078C22.4456 12.4661 23.5003 11.9453 24.8441 11.9453C26.1878 11.9453 27.2399 12.4661 28.0003 13.5078C28.7607 14.5495 29.1409 16.0026 29.1409 17.8672C29.1409 19.7266 28.7607 21.1771 28.0003 22.2188C27.2451 23.2604 26.193 23.7812 24.8441 23.7812ZM23.1722 21.0156C23.568 21.7448 24.1253 22.1094 24.8441 22.1094C25.5628 22.1094 26.1175 21.7448 26.5081 21.0156C26.904 20.2812 27.1019 19.2266 27.1019 17.8516C27.1019 16.487 26.904 15.4427 26.5081 14.7188C26.1123 13.9896 25.5576 13.625 24.8441 13.625C24.1305 13.625 23.5732 13.9896 23.1722 14.7188C22.7764 15.4479 22.5784 16.4922 22.5784 17.8516C22.5784 19.2266 22.7764 20.2812 23.1722 21.0156Z" fill="#1A1B1E"/>
</svg>
