<svg width="28" height="28" viewBox="0 0 28 28" fill="none" xmlns="http://www.w3.org/2000/svg">
<g clip-path="url(#clip0_9158_35743)">
<path d="M26.5711 9.39167C25.9815 7.97338 24.7873 6.44222 23.8495 5.9583C24.6127 7.45452 25.0545 8.95544 25.2232 10.0756C25.2232 10.0778 25.2241 10.0832 25.2259 10.0982C23.6918 6.2746 21.0907 4.73283 18.9666 1.37579C18.8594 1.20605 18.7518 1.03586 18.647 0.856436C18.5937 0.764837 18.5438 0.671213 18.4977 0.575786C18.4094 0.405383 18.3414 0.2253 18.2948 0.0391477C18.2955 0.0208824 18.2822 0.00513273 18.264 0.00278121C18.2557 0.000375012 18.2468 0.000375012 18.2385 0.00278121C18.2366 0.00343745 18.2338 0.00567959 18.2317 0.0064452C18.2287 0.00764831 18.2083 0.0197887 18.2092 0.018695C14.8013 2.01459 13.6634 5.69241 13.5571 7.53966C12.1963 7.63323 10.8951 8.1346 9.82337 8.97846C9.71115 8.88369 9.59385 8.7951 9.47195 8.71313C9.16275 7.63132 9.14957 6.48629 9.43389 5.39765C8.04026 6.03223 6.95627 7.03529 6.16823 7.92099H6.16194C5.62416 7.23982 5.66206 4.99275 5.69274 4.5236C5.68628 4.49451 5.29156 4.72851 5.23982 4.76378C4.76525 5.10251 4.32158 5.48258 3.914 5.89956C3.45021 6.36987 3.02644 6.87807 2.64714 7.41881C2.64714 7.41946 2.64676 7.42028 2.64654 7.42094C2.64654 7.42023 2.64692 7.41946 2.64714 7.41881C1.77478 8.65505 1.15606 10.0519 0.826791 11.5287C0.820284 11.5581 0.814815 11.5886 0.808526 11.6182C0.782988 11.7377 0.691114 12.3352 0.675037 12.465C0.673779 12.475 0.673232 12.4846 0.672029 12.4946C0.553195 13.1123 0.479642 13.7379 0.451861 14.3663C0.451861 14.3895 0.450439 14.4124 0.450439 14.4356C0.450768 21.9274 6.52484 28.0005 14.0172 28.0005C20.7272 28.0005 26.2986 23.1295 27.3894 16.7313C27.4123 16.5576 27.4308 16.3831 27.451 16.2079C27.7206 13.8815 27.4211 11.4364 26.5711 9.39167ZM10.9345 20.0097C10.998 20.04 11.0576 20.0731 11.1228 20.1022C11.1255 20.1041 11.1292 20.1062 11.132 20.1079C11.0656 20.0762 10.9998 20.0434 10.9345 20.0097ZM25.2269 10.1015L25.2251 10.0883C25.2258 10.0931 25.2267 10.0982 25.2274 10.1029L25.2269 10.1015Z" fill="url(#paint0_linear_9158_35743)"/>
<path d="M26.571 9.39139C25.9814 7.97309 24.7872 6.44193 23.8495 5.95801C24.6127 7.45423 25.0544 8.95515 25.2232 10.0753C25.2232 10.072 25.2238 10.078 25.2252 10.088C25.2259 10.0928 25.2267 10.0979 25.2275 10.1026C26.5074 13.5727 25.8101 17.1013 24.8053 19.2575C23.2507 22.5938 19.4868 26.013 13.5955 25.8462C7.23042 25.666 1.62293 20.9432 0.576176 14.7574C0.38543 13.782 0.576176 13.2867 0.672151 12.4947C0.555231 13.1053 0.510717 13.2816 0.451983 14.3664C0.451983 14.3896 0.450562 14.4125 0.450562 14.4357C0.450726 21.9271 6.5248 28.0002 14.0172 28.0002C20.7272 28.0002 26.2986 23.1292 27.3893 16.731C27.4123 16.5573 27.4307 16.3828 27.4509 16.2076C27.7206 13.8813 27.421 11.4361 26.571 9.39139Z" fill="url(#paint1_radial_9158_35743)"/>
<path d="M26.571 9.39139C25.9814 7.97309 24.7872 6.44193 23.8495 5.95801C24.6127 7.45423 25.0544 8.95515 25.2232 10.0753C25.2232 10.072 25.2238 10.078 25.2252 10.088C25.2259 10.0928 25.2267 10.0979 25.2275 10.1026C26.5074 13.5727 25.8101 17.1013 24.8053 19.2575C23.2507 22.5938 19.4868 26.013 13.5955 25.8462C7.23042 25.666 1.62293 20.9432 0.576176 14.7574C0.38543 13.782 0.576176 13.2867 0.672151 12.4947C0.555231 13.1053 0.510717 13.2816 0.451983 14.3664C0.451983 14.3896 0.450562 14.4125 0.450562 14.4357C0.450726 21.9271 6.5248 28.0002 14.0172 28.0002C20.7272 28.0002 26.2986 23.1292 27.3893 16.731C27.4123 16.5573 27.4307 16.3828 27.4509 16.2076C27.7206 13.8813 27.421 11.4361 26.571 9.39139Z" fill="url(#paint2_radial_9158_35743)"/>
<path d="M19.9782 10.9858C20.0078 11.0066 20.0347 11.0273 20.0625 11.0479C19.722 10.4436 19.2981 9.8904 18.8031 9.40451C14.586 5.18791 18.2117 0.0176953 18.2127 0.0166016C14.8047 2.01249 13.6637 5.69185 13.5574 7.53905C13.7154 7.52811 13.8731 7.51482 14.0339 7.51482C16.5771 7.51488 18.7921 8.91315 19.9782 10.9858Z" fill="url(#paint3_radial_9158_35743)"/>
<path d="M14.0425 11.8276C14.0202 12.1651 12.828 13.3288 12.411 13.3288C8.55325 13.3288 7.92703 15.6622 7.92703 15.6622C8.09793 17.6273 9.46591 19.2454 11.1227 20.1017C11.1983 20.1407 11.2748 20.176 11.3514 20.2109C11.4826 20.269 11.6155 20.3233 11.7499 20.3738C12.318 20.5749 12.913 20.6896 13.5152 20.7143C20.2768 21.0314 21.5868 12.6308 16.7072 10.1914C17.9568 9.97406 19.2539 10.4766 19.9783 10.9855C18.7921 8.91298 16.5771 7.51465 14.034 7.51465C13.8731 7.51465 13.7156 7.52794 13.5575 7.53887C12.1966 7.63244 10.8955 8.13381 9.82372 8.97767C10.0305 9.15267 10.2641 9.38662 10.756 9.8712C11.6762 10.7782 14.0374 11.7174 14.0425 11.8276Z" fill="url(#paint4_radial_9158_35743)"/>
<path d="M14.0425 11.8276C14.0202 12.1651 12.828 13.3288 12.411 13.3288C8.55325 13.3288 7.92703 15.6622 7.92703 15.6622C8.09793 17.6273 9.46591 19.2454 11.1227 20.1017C11.1983 20.1407 11.2748 20.176 11.3514 20.2109C11.4826 20.269 11.6155 20.3233 11.7499 20.3738C12.318 20.5749 12.913 20.6896 13.5152 20.7143C20.2768 21.0314 21.5868 12.6308 16.7072 10.1914C17.9568 9.97406 19.2539 10.4766 19.9783 10.9855C18.7921 8.91298 16.5771 7.51465 14.034 7.51465C13.8731 7.51465 13.7156 7.52794 13.5575 7.53887C12.1966 7.63244 10.8955 8.13381 9.82372 8.97767C10.0305 9.15267 10.2641 9.38662 10.756 9.8712C11.6762 10.7782 14.0374 11.7174 14.0425 11.8276Z" fill="url(#paint5_radial_9158_35743)"/>
<path d="M9.19091 8.52667C9.28541 8.58765 9.37915 8.64972 9.47211 8.71294C9.16292 7.63113 9.14974 6.4861 9.43405 5.39746C8.04042 6.03204 6.95643 7.0351 6.1684 7.9208C6.23358 7.919 8.20142 7.88356 9.19091 8.52667Z" fill="url(#paint6_radial_9158_35743)"/>
<path d="M0.576264 14.7578C1.62302 20.9435 7.23051 25.6664 13.5956 25.8466C19.4869 26.0133 23.2508 22.5939 24.8054 19.2579C25.8102 17.1015 26.5076 13.5733 25.2275 10.103L25.2271 10.1016L25.2253 10.0884C25.2239 10.0784 25.2231 10.0724 25.2233 10.0757C25.2233 10.0779 25.2241 10.0834 25.226 10.0983C25.7071 13.2404 24.1088 16.2844 21.6103 18.3426L21.6028 18.3603C16.7342 22.3244 12.0753 20.752 11.1321 20.1083C11.0658 20.0764 10.9999 20.0436 10.9345 20.0099C8.09603 18.6535 6.92344 16.0675 7.17484 13.8498C4.77809 13.8498 3.96086 11.8284 3.96086 11.8284C3.96086 11.8284 6.11272 10.2941 8.94876 11.6285C11.5754 12.8644 14.0422 11.8285 14.0425 11.8284C14.0374 11.7182 11.6762 10.779 10.7558 9.87205C10.2639 9.38747 10.0303 9.15385 9.82352 8.97852C9.7113 8.88375 9.594 8.79516 9.47211 8.71319C9.37903 8.65008 9.2853 8.58801 9.19091 8.52692C8.20147 7.88381 6.23357 7.91925 6.16839 7.92094H6.1621C5.62431 7.23977 5.66221 4.9927 5.69289 4.52349C5.68644 4.4944 5.29171 4.7284 5.23998 4.76368C4.76541 5.1024 4.32174 5.48253 3.91416 5.89946C3.45036 6.36987 3.0266 6.87818 2.64729 7.41903C2.64729 7.41969 2.64691 7.42051 2.64669 7.42116C2.64669 7.42045 2.64707 7.41969 2.64729 7.41903C1.77494 8.65527 1.15621 10.0521 0.826946 11.5289C0.820438 11.5582 0.338596 13.665 0.576264 14.7578Z" fill="url(#paint7_radial_9158_35743)"/>
<path d="M18.8031 9.40452C19.298 9.89041 19.722 10.4436 20.0625 11.0479C20.1372 11.104 20.207 11.16 20.2661 11.2145C23.3417 14.0483 21.7303 18.0563 21.6101 18.342C24.1086 16.2838 25.707 13.2398 25.2258 10.0977C23.6917 6.27416 21.0905 4.73238 18.9665 1.37535C18.8592 1.2056 18.7517 1.03542 18.6469 0.85599C18.5936 0.764391 18.5437 0.670767 18.4975 0.57534C18.4093 0.404937 18.3412 0.224854 18.2947 0.0387017C18.2954 0.0204365 18.282 0.00468676 18.2639 0.00233525C18.2555 -7.0956e-05 18.2507 -0.00100063 18.2423 0.00140558C18.2404 0.00206181 18.2336 0.00523363 18.2316 0.00599924C18.2286 0.00720234 18.2249 0.00999135 18.2216 0.0116319C17.7051 0.277517 14.5859 5.18792 18.8031 9.40452Z" fill="url(#paint8_radial_9158_35743)"/>
<path d="M20.2661 11.2154C20.2069 11.1608 20.1371 11.1049 20.0625 11.0488C20.0349 11.028 20.0078 11.0073 19.9782 10.9867C19.2538 10.4779 17.9567 9.97529 16.7071 10.1926C21.5868 12.6321 20.2768 21.0326 13.5151 20.7155C12.913 20.6909 12.3179 20.5761 11.7498 20.375C11.6155 20.3245 11.4826 20.2702 11.3513 20.2121C11.2748 20.1772 11.1983 20.1419 11.1227 20.1029C11.1254 20.1047 11.1291 20.1068 11.1319 20.1085C12.0752 20.7521 16.734 22.3246 21.6026 18.3605L21.6101 18.3428C21.7303 18.0574 23.3417 14.0493 20.2661 11.2154Z" fill="url(#paint9_radial_9158_35743)"/>
<path d="M7.92703 15.6628C7.92703 15.6628 8.55325 13.3294 12.411 13.3294C12.8281 13.3294 14.0204 12.1657 14.0425 11.8282C14.0645 11.4908 11.5755 12.8642 8.94874 11.6283C6.1127 10.2939 3.96085 11.8282 3.96085 11.8282C3.96085 11.8282 4.77808 13.8497 7.17482 13.8497C6.92343 16.0674 8.09601 18.6536 10.9345 20.0098C10.9979 20.0401 11.0575 20.0732 11.1226 20.1023C9.46596 19.2461 8.09793 17.6279 7.92703 15.6628Z" fill="url(#paint10_radial_9158_35743)"/>
<path d="M26.5715 9.39123C25.9819 7.97294 24.7877 6.44177 23.8499 5.95785C24.6131 7.45407 25.0549 8.955 25.2236 10.0751C25.2236 10.0773 25.2245 10.0828 25.2263 10.0977C23.6922 6.27416 21.0911 4.73238 18.967 1.37535C18.8598 1.2056 18.7522 1.03542 18.6474 0.85599C18.5941 0.764391 18.5442 0.670768 18.4981 0.57534C18.4098 0.404937 18.3418 0.224854 18.2952 0.0387017C18.2959 0.0204365 18.2825 0.00468676 18.2644 0.00233525C18.2561 -7.0956e-05 18.2512 -0.00100063 18.2428 0.00140558C18.2409 0.00206181 18.2342 0.00523363 18.2321 0.00599924C18.2291 0.00720234 18.2183 0.0133819 18.217 0.0141475C14.7125 2.11192 13.6638 5.69202 13.5575 7.53922C13.7156 7.52828 13.8732 7.51499 14.0341 7.51499C16.5773 7.51499 18.7923 8.91327 19.9783 10.9858C19.2539 10.477 17.9568 9.97441 16.7072 10.1917C21.5869 12.6312 20.2769 21.0317 13.5152 20.7146C12.9131 20.69 12.318 20.5753 11.7499 20.3742C11.6156 20.3236 11.4827 20.2693 11.3514 20.2113C11.2749 20.1764 11.1984 20.1411 11.1228 20.1021C11.1255 20.1039 11.1292 20.106 11.132 20.1077C11.0657 20.0758 10.9998 20.043 10.9344 20.0093C10.9978 20.0396 11.0574 20.0727 11.1226 20.1018C9.46579 19.2456 8.09775 17.6274 7.92691 15.6624C7.92691 15.6624 8.55312 13.329 12.4109 13.329C12.828 13.329 14.0203 12.1653 14.0423 11.8278C14.0373 11.7176 11.6761 10.7784 10.7556 9.87143C10.2638 9.38686 10.0302 9.15323 9.82338 8.97791C9.71116 8.88314 9.59386 8.79455 9.47196 8.71257C9.16277 7.63076 9.14959 6.48574 9.4339 5.3971C8.04028 6.03168 6.95628 7.03474 6.16825 7.92044H6.16196C5.62417 7.23926 5.66207 4.9922 5.69275 4.52299C5.6863 4.4939 5.29157 4.7279 5.23984 4.76317C4.76527 5.1019 4.3216 5.48197 3.91402 5.89895C3.45039 6.36937 3.02673 6.87757 2.64754 7.41836C2.64754 7.41902 2.64715 7.41984 2.64693 7.42049C2.64693 7.41978 2.64732 7.41902 2.64754 7.41836C1.77518 8.6546 1.15646 10.0515 0.827189 11.5283C0.820682 11.5577 0.815213 11.5881 0.808924 11.6178C0.783386 11.7372 0.668599 12.3434 0.652576 12.4734C0.651318 12.4834 0.653779 12.4634 0.652576 12.4734C0.547851 13.0997 0.481079 13.7317 0.452533 14.3662C0.452533 14.3893 0.451111 14.4122 0.451111 14.4355C0.451111 21.9269 6.52519 28 14.0176 28C20.7276 28 26.299 23.129 27.3897 16.7308C27.4127 16.5571 27.4311 16.3826 27.4513 16.2074C27.721 13.8811 27.4215 11.436 26.5715 9.39123ZM25.2256 10.0879C25.2263 10.0927 25.2272 10.0977 25.2279 10.1025L25.2275 10.101L25.2256 10.0879Z" fill="url(#paint11_linear_9158_35743)"/>
</g>
<defs>
<linearGradient id="paint0_linear_9158_35743" x1="24.0846" y1="4.33205" x2="2.30117" y2="25.3527" gradientUnits="userSpaceOnUse">
<stop offset="0.05" stop-color="#FFF339"/>
<stop offset="0.37" stop-color="#FF9800"/>
<stop offset="0.53" stop-color="#FF3346"/>
<stop offset="0.7" stop-color="#FF0D8A"/>
</linearGradient>
<radialGradient id="paint1_radial_9158_35743" cx="0" cy="0" r="1" gradientUnits="userSpaceOnUse" gradientTransform="translate(24.2191 5.95945) scale(27.7469 28.2141)">
<stop offset="0.13" stop-color="#FFBD44"/>
<stop offset="0.28" stop-color="#FF9800"/>
<stop offset="0.47" stop-color="#FF3450"/>
<stop offset="0.78" stop-color="#FF027B"/>
<stop offset="0.86" stop-color="#FF0083"/>
</radialGradient>
<radialGradient id="paint2_radial_9158_35743" cx="0" cy="0" r="1" gradientUnits="userSpaceOnUse" gradientTransform="translate(13.7267 14.7849) scale(28.4405 28.2141)">
<stop offset="0.3" stop-color="#AF0611"/>
<stop offset="0.35" stop-color="#CE1223" stop-opacity="0.74"/>
<stop offset="0.43" stop-color="#FD243B" stop-opacity="0.34"/>
<stop offset="0.5" stop-color="#FF304B" stop-opacity="0.09"/>
<stop offset="0.53" stop-color="#FF3450" stop-opacity="0"/>
</radialGradient>
<radialGradient id="paint3_radial_9158_35743" cx="0" cy="0" r="1" gradientUnits="userSpaceOnUse" gradientTransform="translate(16.6796 -1.30658) scale(9.1068 15.4611)">
<stop offset="0.13" stop-color="#FFF339"/>
<stop offset="0.53" stop-color="#FF9800"/>
</radialGradient>
<radialGradient id="paint4_radial_9158_35743" cx="0" cy="0" r="1" gradientUnits="userSpaceOnUse" gradientTransform="translate(10.6691 22.0616) scale(12.0517 13.2088)">
<stop offset="0.35" stop-color="#008EE9"/>
<stop offset="0.67" stop-color="#A059FF"/>
<stop offset="1" stop-color="#DF36EA"/>
</radialGradient>
<radialGradient id="paint5_radial_9158_35743" cx="0" cy="0" r="1" gradientUnits="userSpaceOnUse" gradientTransform="translate(13.5669 11.8713) scale(6.39886 7.79247)">
<stop offset="0.21" stop-color="#A059FF" stop-opacity="0"/>
<stop offset="0.97" stop-color="#80008E" stop-opacity="0.6"/>
</radialGradient>
<radialGradient id="paint6_radial_9158_35743" cx="0" cy="0" r="1" gradientUnits="userSpaceOnUse" gradientTransform="translate(13.1064 2.08159) scale(9.58092 9.61497)">
<stop offset="0.1" stop-color="#FFE200"/>
<stop offset="0.79" stop-color="#FF7232"/>
</radialGradient>
<radialGradient id="paint7_radial_9158_35743" cx="0" cy="0" r="1" gradientUnits="userSpaceOnUse" gradientTransform="translate(21.8536 -4.22345) scale(45.7415 38.3975)">
<stop offset="0.11" stop-color="#FFF339"/>
<stop offset="0.46" stop-color="#FF9800"/>
<stop offset="0.72" stop-color="#FF3346"/>
<stop offset="0.9" stop-color="#FF0D8A"/>
</radialGradient>
<radialGradient id="paint8_radial_9158_35743" cx="0" cy="0" r="1" gradientUnits="userSpaceOnUse" gradientTransform="translate(17.9856 -3.4731) rotate(83.9544) scale(30.0712 30.2963)">
<stop stop-color="#FFF339"/>
<stop offset="0.3" stop-color="#FF9800"/>
<stop offset="0.57" stop-color="#FF3346"/>
<stop offset="0.74" stop-color="#FF0D8A"/>
</radialGradient>
<radialGradient id="paint9_radial_9158_35743" cx="0" cy="0" r="1" gradientUnits="userSpaceOnUse" gradientTransform="translate(13.2042 5.54092) scale(26.2618 25.8004)">
<stop offset="0.14" stop-color="#FFF339"/>
<stop offset="0.48" stop-color="#FF9800"/>
<stop offset="0.66" stop-color="#FF3346"/>
<stop offset="0.9" stop-color="#FF0D8A"/>
</radialGradient>
<radialGradient id="paint10_radial_9158_35743" cx="0" cy="0" r="1" gradientUnits="userSpaceOnUse" gradientTransform="translate(20.0214 7.04762) scale(31.5658 28.2394)">
<stop offset="0.09" stop-color="#FFF339"/>
<stop offset="0.63" stop-color="#FF9800"/>
</radialGradient>
<linearGradient id="paint11_linear_9158_35743" x1="22.7496" y1="4.49164" x2="5.32762" y2="23.5273" gradientUnits="userSpaceOnUse">
<stop offset="0.17" stop-color="#FFF339" stop-opacity="0.8"/>
<stop offset="0.6" stop-color="#FFF339" stop-opacity="0"/>
</linearGradient>
<clipPath id="clip0_9158_35743">
<rect width="28" height="28" fill="white"/>
</clipPath>
</defs>
</svg>
