<svg width="28" height="28" viewBox="0 0 28 28" fill="none" xmlns="http://www.w3.org/2000/svg">
<g clip-path="url(#clip0_9158_35737)">
<path d="M26.8323 14.0002C26.8323 14.8752 26.3423 15.6452 25.6307 16.0419L19.564 19.4136L14.4307 14.0002L19.564 8.58691L25.6307 11.9586C26.3423 12.3552 26.8323 13.1252 26.8323 14.0002Z" fill="#FFC107"/>
<path d="M14.4317 14.0002L1.83169 27.2886C1.41169 26.8686 1.16669 26.2969 1.16669 25.6669V2.33358C1.16669 1.70358 1.41169 1.13191 1.83169 0.711914L14.4317 14.0002Z" fill="#03A9F4"/>
<path d="M14.432 14L19.5654 19.4133C4.19687 27.8425 3.55286 29.1048 1.83203 27.2883L14.432 14Z" fill="#F44336"/>
<path d="M19.5654 8.58673L14.432 14.0001L1.83203 0.711726C2.55303 -0.0501072 3.7092 -0.216941 4.63203 0.291726L19.5654 8.58673Z" fill="#4CAF50"/>
</g>
<defs>
<clipPath id="clip0_9158_35737">
<rect width="28" height="28" fill="white"/>
</clipPath>
</defs>
</svg>
