<svg width="28" height="28" viewBox="0 0 28 28" fill="none" xmlns="http://www.w3.org/2000/svg">
<g clip-path="url(#clip0_9158_35758)">
<path d="M9.39227 6.11037C10.6768 4.59312 12.3358 3.67962 14.1488 3.67962C18.2245 3.67962 21.5285 8.29962 21.5285 13.9994C21.5285 19.6991 18.2245 24.3209 14.1488 24.3209C12.3358 24.3209 10.6768 23.4056 9.39227 21.8901C11.4013 24.4976 14.3868 26.1514 17.7205 26.1514C19.7715 26.1514 21.6895 25.5249 23.331 24.4364C26.1958 21.8726 28 18.1469 28 13.9994C28 9.85187 26.1958 6.12612 23.331 3.56412C21.6895 2.47562 19.7715 1.84912 17.7205 1.84912C14.3868 1.84737 11.3995 3.50287 9.39227 6.11037Z" fill="#D32F2F"/>
<path d="M14.0001 0C6.26856 0 6.10352e-05 6.2685 6.10352e-05 14C6.10352e-05 21.5075 5.91156 27.636 13.3333 27.9843C13.5538 27.9948 13.7761 28 14.0001 28C17.5841 28 20.8531 26.6525 23.3293 24.437C21.6878 25.5255 19.7698 26.152 17.7188 26.152C14.3851 26.152 11.3996 24.4982 9.39056 21.8907C7.84181 20.0637 6.83906 17.3635 6.77256 14.3308C6.77256 14.3238 6.77256 13.6797 6.77256 13.671C6.84081 10.64 7.84356 7.938 9.39056 6.111C11.3996 3.5035 14.3851 1.84975 17.7188 1.84975C19.7698 1.84975 21.6878 2.47625 23.3293 3.56475C20.8671 1.35975 17.6173 0.014 14.0526 0C14.0351 0 14.0176 0 14.0001 0Z" fill="#F44336"/>
</g>
<defs>
<clipPath id="clip0_9158_35758">
<rect width="28" height="28" fill="white"/>
</clipPath>
</defs>
</svg>
