<svg width="28" height="28" viewBox="0 0 28 28" fill="none" xmlns="http://www.w3.org/2000/svg">
<g clip-path="url(#clip0_9158_35762)">
<path opacity="0.53" d="M27.4121 15.0831C27.4121 22.2162 21.407 27.9988 13.9994 27.9988C6.59172 27.9988 0.586548 22.2162 0.586548 15.0831C0.586548 7.95002 6.59167 2.16748 13.9994 2.16748C21.4071 2.16748 27.4121 7.95002 27.4121 15.0831Z" fill="black"/>
<path d="M27.9228 13.9436C27.9228 21.6334 21.6891 27.8672 13.9992 27.8672C6.30945 27.8672 0.0756836 21.6334 0.0756836 13.9436C0.0756836 6.25384 6.3095 0.0200195 13.9993 0.0200195C21.6891 0.0200195 27.9229 6.25384 27.9228 13.9436Z" fill="url(#paint0_linear_9158_35762)" stroke="#CDCDCD" stroke-width="0.0413406" stroke-miterlimit="11.3386" stroke-linecap="round" stroke-linejoin="round"/>
<path d="M26.8319 13.9434C26.8319 21.0306 21.0866 26.7759 13.9994 26.7759C6.9122 26.7759 1.16687 21.0306 1.16687 13.9434C1.16687 6.85617 6.9122 1.11084 13.9994 1.11084C21.0866 1.11079 26.8319 6.85612 26.8319 13.9434Z" fill="url(#paint1_radial_9158_35762)"/>
<path d="M13.9993 1.77979C13.8957 1.77979 13.8122 1.86323 13.8122 1.9669V4.12497C13.8122 4.22863 13.8957 4.31208 13.9993 4.31208C14.103 4.31208 14.1865 4.22863 14.1865 4.12497V1.9669C14.1865 1.86323 14.103 1.77979 13.9993 1.77979ZM12.7754 1.85717C12.7629 1.85585 12.7502 1.85585 12.7373 1.85733C12.6343 1.86809 12.5599 1.95974 12.5706 2.06286L12.665 2.96568C12.6757 3.06875 12.7674 3.14312 12.8705 3.13236C12.9736 3.12159 13.0479 3.02995 13.0372 2.92683L12.943 2.024C12.9335 1.93378 12.8621 1.86558 12.7754 1.85717ZM15.2319 1.85804C15.1451 1.8664 15.0737 1.9346 15.0642 2.02477L14.9692 2.92754C14.9583 3.0306 15.0327 3.12236 15.1358 3.13323C15.2388 3.14405 15.3305 3.06979 15.3414 2.96672L15.4363 2.0639C15.4472 1.96083 15.3728 1.86913 15.2698 1.85831C15.2569 1.85695 15.2443 1.85695 15.2319 1.85804ZM11.5181 2.03952C11.5056 2.03963 11.493 2.04083 11.4803 2.04351C11.3789 2.06499 11.3146 2.1639 11.336 2.26533L11.783 4.37656C11.8044 4.47799 11.9033 4.54231 12.0048 4.52089C12.1062 4.49941 12.1705 4.40055 12.1491 4.29913L11.7021 2.18784C11.6833 2.09909 11.6052 2.03876 11.5181 2.03941L11.5181 2.03952ZM16.4891 2.04127C16.402 2.0404 16.3239 2.10078 16.305 2.18953L15.8565 4.30049C15.835 4.40187 15.8993 4.50083 16.0007 4.52242C16.1021 4.54395 16.201 4.47963 16.2225 4.37826L16.671 2.26729C16.6926 2.16592 16.6283 2.06696 16.5269 2.04542C16.5142 2.04275 16.5015 2.04144 16.4891 2.04144V2.04127ZM10.3181 2.37784C10.2939 2.3756 10.2689 2.37828 10.2443 2.38648C10.1457 2.4185 10.0921 2.52359 10.1241 2.62217L10.4046 3.48554C10.4367 3.58413 10.5418 3.63773 10.6404 3.60571C10.739 3.57369 10.7925 3.46849 10.7605 3.36991L10.48 2.50654C10.456 2.4326 10.3908 2.38396 10.3181 2.37784ZM17.6822 2.37828C17.6095 2.38446 17.5445 2.43304 17.5204 2.50697L17.2397 3.37024C17.2077 3.46882 17.2613 3.57396 17.3598 3.60604C17.4584 3.63806 17.5635 3.58451 17.5956 3.48598L17.8763 2.62261C17.9084 2.52402 17.8547 2.41888 17.7562 2.38681C17.7316 2.37883 17.7064 2.3762 17.6822 2.37828ZM9.13159 2.81207C9.10727 2.81251 9.08268 2.81786 9.05902 2.82835C8.96437 2.87043 8.92196 2.98055 8.96404 3.07531L9.84058 5.0473C9.88266 5.14201 9.99277 5.18436 10.0875 5.14228C10.1822 5.1002 10.2247 4.99009 10.1826 4.89533L9.30597 2.92333C9.27433 2.85229 9.20449 2.81065 9.13159 2.81207ZM18.8822 2.81868C18.8093 2.81737 18.7394 2.85874 18.7077 2.92973L17.8285 4.90052C17.7863 4.99517 17.8285 5.10539 17.9232 5.14758C18.0178 5.18982 18.128 5.14758 18.1703 5.05293L19.0494 3.08214C19.0917 2.98749 19.0495 2.87726 18.9548 2.83508C18.9312 2.82453 18.9065 2.81917 18.8822 2.81868ZM8.03017 3.39483C7.99427 3.39215 7.95728 3.40018 7.92361 3.41964C7.83383 3.47144 7.80334 3.58544 7.85514 3.67522L8.30904 4.46138C8.36085 4.55116 8.47484 4.58165 8.56457 4.52985C8.6543 4.47804 8.68485 4.36405 8.63304 4.27426L8.17914 3.48811C8.14674 3.43199 8.09007 3.39898 8.03017 3.39483ZM19.9685 3.39483C19.9087 3.39882 19.852 3.43199 19.8196 3.48811L19.3656 4.27426C19.3138 4.36405 19.3444 4.47799 19.4342 4.52985C19.5239 4.58165 19.6379 4.55116 19.6897 4.46138L20.1436 3.67522C20.1954 3.58544 20.165 3.4715 20.0752 3.41964C20.0415 3.40018 20.0045 3.39231 19.9685 3.39483ZM6.96068 4.06185C6.92466 4.06316 6.8886 4.07475 6.85717 4.09753C6.77329 4.15841 6.75471 4.27492 6.81559 4.35886L8.08275 6.10565C8.14362 6.18954 8.26024 6.20812 8.34412 6.14724C8.42801 6.08636 8.44659 5.96986 8.38571 5.88592L7.11844 4.13912C7.08041 4.08671 7.02068 4.05983 6.96068 4.06185ZM21.0514 4.07136C20.9914 4.06912 20.9317 4.096 20.8935 4.14841L19.624 5.89351C19.563 5.97734 19.5814 6.09391 19.6652 6.15489C19.749 6.21588 19.8656 6.19752 19.9266 6.11374L21.1961 4.36864C21.2571 4.28481 21.2386 4.16825 21.1548 4.10726C21.1234 4.08437 21.0874 4.07267 21.0514 4.07136ZM6.00473 4.86358C5.95697 4.8609 5.90823 4.87686 5.8697 4.91156C5.79265 4.98091 5.78647 5.09873 5.85582 5.17578L6.46322 5.85051C6.53257 5.92756 6.65039 5.93373 6.72744 5.86439C6.80449 5.79504 6.81067 5.67717 6.74132 5.60011L6.13403 4.92538C6.09933 4.88686 6.05249 4.86604 6.00473 4.86358ZM21.9954 4.86489C21.9476 4.86757 21.9008 4.88822 21.8661 4.92675L21.2587 5.60132C21.1893 5.67837 21.1954 5.79624 21.2725 5.86559C21.3495 5.93494 21.4674 5.92871 21.5367 5.85171L22.1442 5.17714C22.2135 5.10009 22.2073 4.98222 22.1303 4.91287C22.0918 4.87822 22.0432 4.86243 21.9954 4.86489ZM5.08846 5.74367C5.0407 5.74635 4.99392 5.76701 4.95928 5.80553C4.88993 5.88258 4.89616 6.0004 4.97316 6.06975L6.57705 7.51358C6.6541 7.58293 6.77192 7.57676 6.84127 7.4997C6.91062 7.42265 6.9045 7.30483 6.82745 7.23548L5.2235 5.79165C5.18497 5.75701 5.13623 5.74116 5.08846 5.74367ZM22.916 5.75001C22.8682 5.74733 22.8194 5.76324 22.7809 5.79788L21.176 7.24057C21.0989 7.30986 21.0926 7.42768 21.1619 7.50479C21.2312 7.58189 21.3491 7.58812 21.4262 7.51883L23.0311 6.07614C23.1082 6.00685 23.1144 5.88903 23.0451 5.81193C23.0105 5.7734 22.9638 5.75252 22.916 5.75001ZM4.32652 6.72339C4.26652 6.72115 4.20673 6.7482 4.16864 6.8006C4.10771 6.88449 4.12618 7.00099 4.21007 7.06192L4.94447 7.5955C5.02835 7.65643 5.14481 7.63801 5.20574 7.55419C5.26667 7.4703 5.24825 7.35374 5.16442 7.29281L4.43002 6.75923C4.39865 6.73634 4.36253 6.7247 4.32652 6.72339ZM23.6772 6.73022C23.6412 6.73153 23.6052 6.74306 23.5737 6.7659L22.839 7.29898C22.7551 7.35986 22.7365 7.47648 22.7974 7.56036C22.8583 7.64425 22.9748 7.66272 23.0587 7.60189L23.7935 7.06881C23.8774 7.00793 23.8958 6.89143 23.835 6.80749C23.797 6.75508 23.7372 6.72819 23.6772 6.73022ZM3.61452 7.76846C3.55463 7.77245 3.49801 7.80562 3.46561 7.86174C3.4138 7.95153 3.44429 8.06547 3.53408 8.11733L5.40296 9.19633C5.49269 9.24814 5.60668 9.21765 5.65854 9.12786C5.71035 9.03807 5.67986 8.92414 5.59007 8.87228L3.72119 7.79327C3.68753 7.77381 3.65042 7.76594 3.61452 7.76846ZM24.3842 7.76846C24.3483 7.76578 24.3111 7.77381 24.2775 7.79327L22.4086 8.87228C22.3189 8.92408 22.2883 9.03807 22.3401 9.12786C22.3919 9.21765 22.5059 9.24814 22.5957 9.19633L24.4647 8.11733C24.5544 8.06552 24.585 7.95153 24.5332 7.86174C24.5008 7.80562 24.444 7.77267 24.3842 7.76846ZM3.07619 8.88239C3.00329 8.88058 2.93334 8.92233 2.9017 8.99332C2.85946 9.08797 2.9017 9.19819 2.99635 9.24038L3.82546 9.61018C3.92011 9.65242 4.03033 9.61023 4.07257 9.51553C4.11482 9.42088 4.07252 9.31066 3.97787 9.26847L3.14882 8.89867C3.12516 8.88807 3.10051 8.88288 3.07619 8.88239ZM24.9261 8.89004C24.9018 8.89047 24.8771 8.89583 24.8535 8.90632L24.0242 9.27552C23.9295 9.31771 23.8871 9.42782 23.9293 9.52252C23.9715 9.61723 24.0817 9.65958 24.1764 9.61739L25.0057 9.24814C25.1004 9.20601 25.1427 9.09584 25.1005 9.00113C25.0689 8.93015 24.999 8.88862 24.9261 8.89004ZM2.59639 10.0466C2.52371 10.0527 2.45857 10.1012 2.43447 10.1751C2.40239 10.2736 2.45578 10.3788 2.55437 10.411L4.60626 11.0796C4.70479 11.1117 4.81004 11.0582 4.84211 10.9597C4.87419 10.8612 4.8208 10.7559 4.72222 10.7238L2.67033 10.0552C2.64574 10.0472 2.6206 10.0446 2.59639 10.0466ZM25.4051 10.0546C25.3809 10.0524 25.3558 10.0551 25.3312 10.0633L23.2789 10.7304C23.1803 10.7624 23.1267 10.8676 23.1588 10.9662C23.1909 11.0648 23.296 11.1183 23.3946 11.0863L25.4469 10.4191C25.5455 10.3871 25.5991 10.2819 25.567 10.1833C25.5429 10.1094 25.4777 10.0607 25.4051 10.0546ZM2.29747 11.2687C2.21031 11.2678 2.13216 11.3283 2.11331 11.417C2.09178 11.5184 2.15604 11.6174 2.25747 11.639L3.14543 11.8276C3.2468 11.8492 3.34577 11.7849 3.3673 11.6835C3.38883 11.5822 3.32456 11.4832 3.22314 11.4616L2.33523 11.2729C2.32255 11.2702 2.30987 11.2689 2.29747 11.2689V11.2687ZM25.7016 11.2705C25.6892 11.2706 25.6766 11.2723 25.6639 11.2745L24.776 11.4632C24.6746 11.4847 24.6103 11.5836 24.6319 11.685C24.6534 11.7863 24.7524 11.8507 24.8537 11.8292L25.7416 11.6405C25.843 11.619 25.9074 11.52 25.8859 11.4186C25.867 11.3299 25.7888 11.2695 25.7017 11.2703L25.7016 11.2705ZM2.07118 12.498C1.9844 12.5063 1.91297 12.5744 1.90346 12.6646C1.89259 12.7676 1.96675 12.8594 2.06981 12.8703L4.21591 13.0972C4.31898 13.1081 4.41078 13.0339 4.42166 12.9308C4.43253 12.8277 4.35832 12.7359 4.25526 12.7251L2.10916 12.4982C2.09626 12.4969 2.08358 12.4969 2.07118 12.498ZM25.9295 12.5142C25.9171 12.5129 25.9044 12.5129 25.8915 12.5143L23.7452 12.7383C23.6421 12.7491 23.5678 12.8408 23.5785 12.9438C23.5893 13.0469 23.6809 13.1213 23.784 13.1105L25.9303 12.8865C26.0334 12.8757 26.1077 12.7841 26.097 12.681C26.0876 12.5907 26.0162 12.5226 25.9295 12.5142ZM2.03484 13.7564C1.93117 13.7564 1.84778 13.8398 1.84778 13.9435C1.84778 14.0471 1.93122 14.1306 2.03484 14.1306H2.94263C3.0463 14.1306 3.1298 14.0471 3.1298 13.9435C3.1298 13.8398 3.0463 13.7564 2.94263 13.7564H2.03484ZM25.056 13.7564C24.9524 13.7564 24.8689 13.8398 24.8689 13.9435C24.8689 14.0471 24.9524 14.1306 25.056 14.1306H25.9638C26.0675 14.1306 26.1509 14.0471 26.1509 13.9435C26.1509 13.8398 26.0675 13.7564 25.9638 13.7564H25.056ZM4.25274 14.7763C4.24034 14.775 4.22766 14.775 4.21477 14.7765L2.06833 15.0005C1.96527 15.0112 1.89095 15.1029 1.90166 15.2059C1.91243 15.309 2.00407 15.3834 2.10719 15.3726L4.25362 15.1486C4.35668 15.1378 4.431 15.0462 4.42029 14.9431C4.41084 14.8529 4.33952 14.7847 4.25274 14.7763ZM23.7448 14.7895C23.658 14.7978 23.5866 14.8659 23.5771 14.9561C23.5662 15.0592 23.6404 15.151 23.7434 15.1618L25.8895 15.3887C25.9926 15.3996 26.0844 15.3254 26.0953 15.2223C26.1061 15.1193 26.0319 15.0275 25.9289 15.0166L23.7829 14.7897C23.77 14.7884 23.7572 14.7884 23.7448 14.7895ZM3.18286 16.0535C3.1704 16.0536 3.15778 16.0548 3.1451 16.0574L2.25714 16.2461C2.15577 16.2676 2.09145 16.3666 2.11298 16.468C2.13451 16.5694 2.23348 16.6337 2.33485 16.6121L3.22281 16.4236C3.32418 16.4021 3.3885 16.3031 3.36691 16.2017C3.34806 16.113 3.26997 16.0526 3.18281 16.0534L3.18286 16.0535ZM24.8156 16.0553C24.7284 16.0544 24.6503 16.1148 24.6315 16.2035C24.61 16.3049 24.6742 16.4039 24.7755 16.4254L25.6635 16.6141C25.7649 16.6357 25.8638 16.5715 25.8854 16.4701C25.9069 16.3687 25.8426 16.2696 25.7413 16.2481L24.8534 16.0594C24.8407 16.0567 24.828 16.0554 24.8156 16.0554V16.0553ZM4.67812 16.7921C4.65391 16.7899 4.62888 16.7926 4.60424 16.8008L2.55191 17.4679C2.45332 17.4999 2.39977 17.6051 2.43185 17.7037C2.46393 17.8023 2.56907 17.8558 2.66765 17.8238L4.71992 17.1566C4.81851 17.1246 4.87212 17.0194 4.84009 16.9208C4.81599 16.8469 4.7508 16.7983 4.67812 16.7921ZM23.3185 16.7988C23.2459 16.8049 23.1807 16.8534 23.1566 16.9273C23.1245 17.0259 23.1779 17.1311 23.2765 17.1632L25.3283 17.8318C25.4269 17.8639 25.5321 17.8104 25.5642 17.7119C25.5963 17.6134 25.5429 17.5081 25.4443 17.476L23.3925 16.8074C23.3679 16.7994 23.3428 16.7968 23.3185 16.7988ZM3.89497 18.2533C3.87065 18.2538 3.84606 18.259 3.8224 18.2696L2.99302 18.6388C2.89832 18.681 2.85607 18.7911 2.89821 18.8858C2.94039 18.9805 3.05051 19.0228 3.14521 18.9806L3.97459 18.6114C4.06929 18.5693 4.11154 18.4591 4.0694 18.3644C4.03776 18.2934 3.96787 18.2519 3.89497 18.2533ZM24.1008 18.2604C24.0279 18.2586 23.9579 18.3004 23.9263 18.3714C23.884 18.466 23.9262 18.5762 24.0209 18.6184L24.85 18.9882C24.9446 19.0305 25.0548 18.9882 25.0971 18.8936C25.1393 18.7989 25.0971 18.6887 25.0024 18.6465L24.1734 18.2767C24.1497 18.2662 24.1251 18.2609 24.1008 18.2604ZM5.50968 18.6659C5.47378 18.6632 5.43668 18.6713 5.40301 18.6907L3.53413 19.7697C3.4444 19.8215 3.41386 19.9355 3.46566 20.0253C3.51747 20.1151 3.63146 20.1456 3.72125 20.0938L5.59012 19.0148C5.67986 18.963 5.7104 18.849 5.6586 18.7592C5.62614 18.7031 5.56952 18.6701 5.50968 18.6659ZM22.4891 18.6659C22.4292 18.6699 22.3725 18.7031 22.3401 18.7592C22.2883 18.849 22.3188 18.963 22.4086 19.0148L24.2775 20.0938C24.3673 20.1456 24.4813 20.1151 24.5331 20.0253C24.5849 19.9355 24.5544 19.8216 24.4647 19.7697L22.5957 18.6907C22.5621 18.6713 22.525 18.6634 22.4891 18.6659ZM5.04354 20.2494C5.00753 20.2507 4.97146 20.2623 4.94004 20.2852L4.20531 20.8183C4.12143 20.8791 4.10285 20.9956 4.16372 21.0796C4.2246 21.1635 4.34111 21.182 4.42499 21.1212L5.15978 20.5881C5.24366 20.5272 5.26224 20.4107 5.20136 20.3268C5.16333 20.2742 5.10349 20.2473 5.04354 20.2494ZM22.9508 20.2557C22.8908 20.2534 22.831 20.2805 22.7929 20.3329C22.732 20.4167 22.7504 20.5333 22.8343 20.5943L23.5687 21.1278C23.6526 21.1888 23.7691 21.1703 23.83 21.0864C23.8909 21.0025 23.8725 20.886 23.7887 20.8251L23.0543 20.2915C23.0228 20.2687 22.9868 20.2569 22.9508 20.2557ZM6.70755 20.3203C6.65979 20.3176 6.6111 20.3335 6.57252 20.3681L4.96758 21.8108C4.89048 21.8801 4.88425 21.9979 4.95354 22.075C5.02283 22.1521 5.14065 22.1584 5.21776 22.0891L6.82269 20.6464C6.8998 20.5771 6.90603 20.4593 6.83674 20.3822C6.80214 20.3436 6.75531 20.3228 6.70755 20.3203ZM21.2867 20.3254C21.2389 20.3281 21.1921 20.3487 21.1574 20.3873C21.0881 20.4643 21.0943 20.5821 21.1713 20.6515L22.7752 22.0953C22.8522 22.1646 22.9701 22.1585 23.0395 22.0814C23.1088 22.0044 23.1026 21.8866 23.0256 21.8172L21.4216 20.3734C21.3831 20.3387 21.3345 20.3229 21.2867 20.3254ZM8.23013 21.696C8.17018 21.6938 8.11029 21.7206 8.0722 21.7731L6.80269 23.5182C6.7417 23.602 6.76007 23.7185 6.84384 23.7795C6.92767 23.8405 7.04423 23.8222 7.10522 23.7383L8.37473 21.9932C8.43571 21.9094 8.41735 21.7928 8.33358 21.7318C8.30215 21.709 8.26609 21.6973 8.23013 21.696ZM19.7582 21.7039C19.7222 21.7052 19.6861 21.7167 19.6547 21.7396C19.5708 21.8004 19.5522 21.9169 19.6131 22.0009L20.8802 23.7477C20.9411 23.8316 21.0576 23.8501 21.1415 23.7893C21.2254 23.7284 21.244 23.6119 21.1831 23.528L19.9159 21.7812C19.8779 21.7287 19.8182 21.7018 19.7582 21.7039ZM6.59126 21.9734C6.5435 21.9761 6.49667 21.9967 6.46197 22.0352L5.85456 22.7098C5.78522 22.7869 5.79134 22.9047 5.86839 22.9741C5.94544 23.0434 6.06326 23.0372 6.13261 22.9601L6.74006 22.2856C6.80941 22.2085 6.80318 22.0907 6.72618 22.0213C6.68771 21.9867 6.63908 21.9709 6.59126 21.9734ZM21.4063 21.9743C21.3586 21.9716 21.3099 21.9875 21.2714 22.0222C21.1943 22.0916 21.1882 22.2094 21.2575 22.2865L21.8648 22.9612C21.9341 23.0382 22.0519 23.0444 22.129 22.9751C22.206 22.9057 22.2122 22.7878 22.1429 22.7108L21.5356 22.0362C21.5009 21.9975 21.454 21.9768 21.4063 21.9743ZM10.0029 22.7227C9.93004 22.7208 9.8602 22.7626 9.8285 22.8336L8.94923 24.8044C8.90699 24.899 8.94918 25.0093 9.04388 25.0514C9.13853 25.0937 9.24875 25.0514 9.29094 24.9568L10.1702 22.986C10.2125 22.8913 10.1703 22.7811 10.0756 22.7389C10.052 22.7283 10.0273 22.7231 10.0029 22.7227ZM17.9839 22.7281C17.9596 22.7285 17.9349 22.7337 17.9113 22.7443C17.8166 22.7864 17.7742 22.8965 17.8163 22.9912L18.6928 24.9632C18.7348 25.0579 18.8451 25.1003 18.9398 25.0582C19.0344 25.0161 19.0768 24.906 19.0347 24.8113L18.1582 22.8393C18.1267 22.7682 18.0568 22.7266 17.9839 22.7281ZM8.4579 23.332C8.39806 23.336 8.34139 23.3691 8.30898 23.4253L7.85509 24.2114C7.80328 24.3012 7.83377 24.4151 7.92356 24.467C8.01329 24.5188 8.12728 24.4883 8.17909 24.3985L8.63299 23.6124C8.68479 23.5226 8.6543 23.4086 8.56451 23.3568C8.53091 23.3373 8.4938 23.3295 8.4579 23.332ZM19.5408 23.332C19.5049 23.3293 19.4679 23.3373 19.4342 23.3568C19.3445 23.4086 19.3139 23.5226 19.3657 23.6124L19.8196 24.3985C19.8714 24.4883 19.9854 24.5188 20.0752 24.467C20.165 24.4152 20.1955 24.3012 20.1437 24.2114L19.6898 23.4253C19.6573 23.3691 19.6007 23.3362 19.5408 23.332ZM11.9603 23.3602C11.8731 23.3593 11.795 23.4197 11.7762 23.5084L11.3277 25.6194C11.3062 25.7208 11.3704 25.8197 11.4719 25.8413C11.5732 25.8628 11.6722 25.7985 11.6937 25.6972L12.1422 23.5862C12.1637 23.4848 12.0995 23.3859 11.9981 23.3643C11.9854 23.3616 11.9727 23.3603 11.9603 23.3603V23.3602ZM16.0318 23.3615C16.0193 23.3616 16.0067 23.3628 15.9941 23.3655C15.8926 23.3869 15.8283 23.4858 15.8497 23.5872L16.2967 25.6985C16.3182 25.7999 16.4171 25.8643 16.5185 25.8428C16.6199 25.8214 16.6843 25.7225 16.6628 25.621L16.2158 23.5099C16.197 23.4211 16.1189 23.3608 16.0318 23.3615ZM13.9993 23.5744C13.8957 23.5744 13.8122 23.6578 13.8122 23.7615V25.9196C13.8122 26.0232 13.8957 26.1067 13.9993 26.1067C14.103 26.1067 14.1865 26.0232 14.1865 25.9196V23.7615C14.1865 23.6578 14.103 23.5744 13.9993 23.5744ZM10.565 24.2717C10.4923 24.2779 10.4271 24.3265 10.4031 24.4004L10.1225 25.2638C10.0904 25.3624 10.144 25.4675 10.2425 25.4996C10.3411 25.5316 10.4462 25.478 10.4783 25.3794L10.7589 24.5162C10.791 24.4176 10.7374 24.3124 10.6389 24.2804C10.6143 24.2724 10.5892 24.2697 10.565 24.2717ZM17.4322 24.2722C17.408 24.2699 17.383 24.2726 17.3583 24.2808C17.2598 24.3128 17.2061 24.418 17.2382 24.5166L17.5187 25.3799C17.5507 25.4785 17.6559 25.532 17.7545 25.5C17.8531 25.468 17.9067 25.3629 17.8746 25.2643L17.594 24.4009C17.57 24.327 17.5049 24.2784 17.4322 24.2722ZM12.825 24.753C12.7382 24.7614 12.6667 24.8295 12.6573 24.9197L12.5624 25.8225C12.5515 25.9256 12.6258 26.0173 12.7289 26.0281C12.832 26.0389 12.9237 25.9647 12.9346 25.8616L13.0295 24.9588C13.0403 24.8558 12.9661 24.764 12.863 24.7531C12.8501 24.7519 12.8374 24.7519 12.825 24.753ZM15.1662 24.7539C15.1538 24.7526 15.1411 24.7526 15.1282 24.7541C15.0251 24.7649 14.9507 24.8565 14.9615 24.9596L15.0558 25.8625C15.0666 25.9656 15.1582 26.0398 15.2614 26.0291C15.3644 26.0183 15.4388 25.9267 15.428 25.8236L15.3338 24.9207C15.3244 24.8306 15.253 24.7624 15.1662 24.7539Z" fill="#F4F1F2"/>
<path opacity="0.409" d="M22.7686 6.45996L12.5323 12.4073L6.0603 22.5961L15.5284 15.5832L22.7686 6.45996Z" fill="black"/>
<path d="M15.4662 15.4803L12.5322 12.4078L22.9403 5.40625L15.4662 15.4803Z" fill="#FF504F"/>
<path d="M15.4663 15.4793L12.5323 12.4067L5.05823 22.4808L15.4663 15.4793Z" fill="#F0F0F0"/>
<path d="M5.05823 22.4808L15.4663 15.4793L13.9994 13.9429L5.05823 22.4808Z" fill="#B5B5B5"/>
<path d="M22.9404 5.40625L13.9992 13.9441L15.4662 15.4805L15.4663 15.4803L22.9404 5.40625Z" fill="#C43E3D"/>
</g>
<defs>
<linearGradient id="paint0_linear_9158_35762" x1="13.9993" y1="27.8669" x2="13.9993" y2="0.0197241" gradientUnits="userSpaceOnUse">
<stop stop-color="#BDBDBD"/>
<stop offset="1" stop-color="white"/>
</linearGradient>
<radialGradient id="paint1_radial_9158_35762" cx="0" cy="0" r="1" gradientUnits="userSpaceOnUse" gradientTransform="translate(14.0569 12.081) scale(13.9233)">
<stop stop-color="#00C2E8"/>
<stop offset="0.25" stop-color="#00B8ED"/>
<stop offset="0.5" stop-color="#00AFF3"/>
<stop offset="0.75" stop-color="#0086FC"/>
<stop offset="1" stop-color="#007EE0"/>
</radialGradient>
<clipPath id="clip0_9158_35762">
<rect width="28" height="28" fill="white"/>
</clipPath>
</defs>
</svg>
