<svg width="24" height="24" viewBox="0 0 24 24" fill="none" xmlns="http://www.w3.org/2000/svg">
<path d="M3.42859 6.85818V13.481L7.0983 9.81132C7.60973 9.2999 8.2223 8.92047 8.92859 8.89932C9.63487 8.87818 10.3389 9.26504 10.8983 9.98389L13.1629 12.8913L14.5257 11.5273C15.0246 11.0279 15.5869 10.6559 16.2554 10.6456C16.9234 10.6359 17.552 10.9936 18.1663 11.6153L20.5714 14.0422V6.85761C20.5714 5.03018 19.3652 3.42847 17.7154 3.42847H6.28802C4.6383 3.42847 3.42859 5.03075 3.42859 6.85818ZM13.8 5.42847C14.9149 5.42847 15.8292 6.34675 15.8292 7.46218C15.8292 8.57761 14.9149 9.49018 13.8 9.49018C12.6852 9.49018 11.7669 8.57704 11.7669 7.46218C11.7674 6.3479 12.6852 5.42847 13.8 5.42847ZM13.8 6.57132C13.3023 6.57132 12.9097 6.96447 12.9097 7.46218C12.9097 7.9599 13.3023 8.34732 13.8 8.34732C14.2966 8.34732 14.6863 7.9599 14.6863 7.46218C14.6863 6.96447 14.2977 6.57132 13.8 6.57132ZM8.9623 10.0439C8.6623 10.053 8.28859 10.2365 7.90402 10.621L3.42859 15.0959V17.1428C3.42859 18.9708 4.6383 20.5713 6.28802 20.5713H17.7154C19.3652 20.5713 20.5714 18.9713 20.5714 17.1428V15.6616L17.356 12.4216C16.8583 11.9176 16.5189 11.7856 16.2726 11.789C16.0257 11.7925 15.728 11.9376 15.332 12.3336L13.868 13.7982L15.3097 15.6496C15.8217 16.2559 14.8709 16.997 14.408 16.3536L9.99487 10.6839C9.58345 10.1548 9.26287 10.0348 8.9623 10.0439Z" fill="white"/>
</svg>
