<svg width="18" height="18" viewBox="0 0 18 18" fill="none" xmlns="http://www.w3.org/2000/svg">
<path d="M4.09091 0H13.9091C14.9937 0.00129916 16.0335 0.432722 16.8004 1.19963C17.5673 1.96655 17.9987 3.00633 18 4.09091V10.6364C17.9988 11.5791 17.6727 12.4926 17.0765 13.2228C16.4804 13.9531 15.6507 14.4556 14.7273 14.6455V17.1818C14.7273 17.3299 14.6871 17.4753 14.611 17.6024C14.5349 17.7294 14.4257 17.8335 14.2951 17.9034C14.1645 17.9732 14.0173 18.0063 13.8694 17.9992C13.7214 17.992 13.5782 17.9448 13.455 17.8625L8.75455 14.7273H4.09091C3.00633 14.726 1.96655 14.2946 1.19963 13.5276C0.43272 12.7607 0.0012989 11.7209 0 10.6364V4.09091C0.0012989 3.00633 0.43272 1.96655 1.19963 1.19963C1.96655 0.432722 3.00633 0.00129916 4.09091 0ZM5.72727 9.81818H12.2727C12.4897 9.81818 12.6978 9.73198 12.8513 9.57854C13.0047 9.4251 13.0909 9.217 13.0909 9C13.0909 8.783 13.0047 8.5749 12.8513 8.42146C12.6978 8.26802 12.4897 8.18182 12.2727 8.18182H5.72727C5.51028 8.18182 5.30217 8.26802 5.14873 8.42146C4.99529 8.5749 4.90909 8.783 4.90909 9C4.90909 9.217 4.99529 9.4251 5.14873 9.57854C5.30217 9.73198 5.51028 9.81818 5.72727 9.81818ZM4.09091 6.54545H13.9091C14.1261 6.54545 14.3342 6.45925 14.4876 6.30581C14.6411 6.15238 14.7273 5.94427 14.7273 5.72727C14.7273 5.51028 14.6411 5.30217 14.4876 5.14873C14.3342 4.99529 14.1261 4.90909 13.9091 4.90909H4.09091C3.87391 4.90909 3.66581 4.99529 3.51237 5.14873C3.35893 5.30217 3.27273 5.51028 3.27273 5.72727C3.27273 5.94427 3.35893 6.15238 3.51237 6.30581C3.66581 6.45925 3.87391 6.54545 4.09091 6.54545Z" fill="white"/>
</svg>
