<svg width="24" height="24" viewBox="0 0 24 24" fill="none" xmlns="http://www.w3.org/2000/svg">
<path d="M12.3822 9.62183C11.2148 10.2603 10.2603 11.2148 9.62191 12.3821L8.75443 13.9682C8.49835 14.4365 7.82271 14.4381 7.5657 13.9682L6.69822 12.3821C6.05976 11.2148 5.10527 10.2603 3.93793 9.62179L2.35184 8.75439C1.88359 8.49827 1.88185 7.82268 2.35184 7.56563L3.93793 6.69819C5.10527 6.05973 6.05976 5.10524 6.69818 3.9379L7.56566 2.35181C7.82178 1.88356 8.49737 1.88191 8.75438 2.35181L9.62187 3.9379C10.2603 5.10524 11.2148 6.05973 12.3822 6.69823L13.9682 7.56563C14.4365 7.82175 14.4382 8.49734 13.9682 8.75439L12.3822 9.62183ZM19.6843 17.2617L18.9798 16.8764C17.3542 15.9873 16.7847 14.7359 16.3335 13.9108C16.0773 13.4426 15.4018 13.4409 15.1447 13.9108C14.7008 14.7225 14.1301 15.9839 12.4984 16.8764L11.7939 17.2617C11.3256 17.5178 11.3239 18.1934 11.7939 18.4505L12.4983 18.8357C14.1239 19.7249 14.6934 20.9762 15.1447 21.8013C15.4009 22.2696 16.0764 22.2712 16.3334 21.8013L16.7187 21.0968C17.6078 19.4712 18.8592 18.9017 19.6843 18.4505C20.1526 18.1944 20.1543 17.5188 19.6843 17.2617ZM7.32072 18.172C6.84459 17.9117 6.15245 17.6017 5.66049 16.7022C5.66049 16.6979 5.6839 16.745 5.43066 16.2819C5.1745 15.8137 4.49899 15.812 4.24194 16.2819L4.01211 16.7022C3.52244 17.5976 2.83732 17.9066 2.35188 18.172C1.88363 18.4282 1.8819 19.1038 2.35188 19.3608C2.83181 19.6232 3.5207 19.932 4.01211 20.8307L4.24194 21.2509C4.4981 21.7192 5.17361 21.7208 5.43066 21.2509L5.66049 20.8306C6.15016 19.9352 6.83528 19.6263 7.32072 19.3608C7.78901 19.1047 7.7907 18.4291 7.32072 18.172ZM22.6481 8.73001C22.172 8.46965 21.4799 8.15972 20.9879 7.26018C20.9879 7.25591 21.0113 7.30299 20.7581 6.83991C20.5019 6.37166 19.8264 6.37001 19.5694 6.83991L19.3395 7.26018C18.8498 8.15557 18.1647 8.46453 17.6793 8.73001C17.2111 8.98613 17.2093 9.66172 17.6793 9.91877C18.1592 10.1812 18.8481 10.49 19.3395 11.3886L19.5694 11.8089C19.8255 12.2771 20.501 12.2788 20.7581 11.8089L20.9879 11.3886C21.4776 10.4932 22.1627 10.1842 22.6481 9.91877C23.1164 9.66265 23.1181 8.98706 22.6481 8.73001Z" fill="white"/>
</svg>
