<svg width="12" height="18" viewBox="0 0 12 18" fill="none" xmlns="http://www.w3.org/2000/svg">
<path d="M8.57143 15.8572H3.42857C2.95543 15.8572 2.57143 16.2403 2.57143 16.7143C2.57143 17.1883 2.95543 17.5715 3.42857 17.5715H8.57143C9.04543 17.5715 9.42857 17.1883 9.42857 16.7143C9.42857 16.2403 9.04543 15.8572 8.57143 15.8572Z" fill="white"/>
<path d="M11.1429 8.14282C10.6689 8.14282 10.2857 8.52597 10.2857 8.99997C10.2857 11.3631 8.36314 13.2857 6 13.2857C3.63686 13.2857 1.71429 11.3631 1.71429 8.99997C1.71429 8.52597 1.33029 8.14282 0.857143 8.14282C0.384 8.14282 0 8.52597 0 8.99997C0 12.3077 2.69143 15 6 15C9.30771 15 12 12.3077 12 8.99997C12 8.52597 11.6169 8.14282 11.1429 8.14282Z" fill="white"/>
<path d="M6 0.428467C4.10914 0.428467 2.57143 1.96618 2.57143 3.85704V8.9999C2.57143 10.8908 4.10914 12.4285 6 12.4285C7.89086 12.4285 9.42857 10.8908 9.42857 8.9999V3.85704C9.42857 1.96618 7.89086 0.428467 6 0.428467Z" fill="white"/>
</svg>
