<svg width="29" height="28" viewBox="0 0 29 28" fill="none" xmlns="http://www.w3.org/2000/svg">
<path d="M21.8008 27.6392C21.4508 27.6392 21.0997 27.5537 20.7758 27.3807L14.7501 24.1605C14.5936 24.077 14.4066 24.077 14.25 24.1605L8.22417 27.3807C7.48824 27.774 6.61003 27.7152 5.93221 27.2275C5.24178 26.7311 4.90148 25.8986 5.04396 25.055L6.19475 18.2349C6.22658 18.0464 6.16591 17.8552 6.03282 17.7232L1.15774 12.8934C0.556814 12.2978 0.348104 11.4265 0.612997 10.619C0.874898 9.82067 1.54952 9.24923 2.37346 9.12747L9.11049 8.13241C9.28758 8.10635 9.44161 7.99142 9.52236 7.82501L12.5355 1.6199C12.9059 0.856842 13.6587 0.382812 14.5 0.382812C15.3412 0.382812 16.094 0.856842 16.4647 1.6199L19.4776 7.82501C19.5584 7.99121 19.7124 8.10635 19.8895 8.13241L26.6265 9.12747C27.4504 9.24923 28.1251 9.82067 28.387 10.619C28.6519 11.4263 28.4432 12.2978 27.8422 12.8932L22.9671 17.7232C22.8341 17.8552 22.7734 18.0464 22.8052 18.2346L23.956 25.0548C24.0985 25.8984 23.7582 26.7309 23.0678 27.2275C22.6884 27.5005 22.2457 27.6392 21.8008 27.6392Z" fill="#0EA982"/>
</svg>
