<svg width="18" height="18" viewBox="0 0 18 18" fill="none" xmlns="http://www.w3.org/2000/svg">
<path d="M8.98452 11.5445C8.98975 11.5445 8.9949 11.5446 9.00012 11.5446C10.1689 11.5446 11.2679 11.0906 12.0961 10.2653C12.928 9.4362 13.3862 8.33283 13.3862 7.15838V0.428467H7.70728C6.00153 0.428467 4.61383 1.81617 4.61383 3.52192V7.11622C4.61383 9.54964 6.57451 11.5362 8.98452 11.5445Z" fill="white"/>
<path d="M16.2075 12.4519C15.3284 11.5673 14.1577 11.0754 12.911 11.067L12.7182 11.0657L12.574 11.1937C11.59 12.0677 10.3207 12.5491 9.00099 12.5491H8.98184C7.68085 12.5445 6.4245 12.0631 5.44425 11.1933L5.30108 11.0663L5.10969 11.0667C2.52849 11.0731 0.428589 13.1783 0.428589 15.7595V17.5714H17.5714V15.7595C17.5714 14.5116 17.0871 13.337 16.2075 12.4519Z" fill="white"/>
</svg>
