<svg width="20" height="14" viewBox="0 0 20 14" fill="none" xmlns="http://www.w3.org/2000/svg">
<path fill-rule="evenodd" clip-rule="evenodd" d="M19.1523 1.63897C19.0684 1.59046 18.9731 1.56492 18.8761 1.56492C18.7791 1.56492 18.6838 1.59046 18.5999 1.63897L14.9069 3.77115V2.25337C14.9065 1.87739 14.757 1.51691 14.4912 1.25101C14.2253 0.98511 13.8649 0.835487 13.4889 0.834961H1.98938C1.61339 0.835478 1.25296 0.985097 0.987139 1.251C0.721318 1.51691 0.571811 1.87738 0.571411 2.25337L0.571411 11.7466C0.571723 12.1226 0.721202 12.4832 0.987042 12.7491C1.25288 13.015 1.61337 13.1646 1.98938 13.165H13.4888C13.8649 13.1646 14.2253 13.015 14.4912 12.7491C14.757 12.4832 14.9065 12.1226 14.9068 11.7466V10.2292L18.5999 12.361C18.6838 12.4095 18.7791 12.435 18.8761 12.435C18.973 12.435 19.0683 12.4095 19.1523 12.361C19.2363 12.3126 19.306 12.2428 19.3545 12.1589C19.403 12.0749 19.4285 11.9796 19.4286 11.8827V2.1175C19.4285 2.02053 19.4029 1.92527 19.3545 1.84128C19.306 1.75729 19.2363 1.68752 19.1523 1.63897ZM9.29696 6.99999L6.18878 8.79429V5.20569L9.29696 6.99999ZM5.08387 4.24877C5.08388 4.1518 5.10942 4.05654 5.15791 3.97257C5.20641 3.8886 5.27615 3.81887 5.36013 3.77039C5.44411 3.72191 5.53938 3.6964 5.63634 3.6964C5.73331 3.6964 5.82857 3.72193 5.91255 3.77041L10.678 6.52164C10.762 6.57013 10.8317 6.63987 10.8802 6.72385C10.9287 6.80783 10.9542 6.9031 10.9542 7.00007C10.9542 7.09704 10.9287 7.1923 10.8802 7.27628C10.8317 7.36026 10.762 7.43 10.678 7.47849L5.91255 10.2297C5.82857 10.2782 5.73331 10.3037 5.63634 10.3037C5.53938 10.3037 5.44411 10.2782 5.36013 10.2297C5.27615 10.1813 5.20641 10.1115 5.15791 10.0276C5.10942 9.94359 5.08388 9.84834 5.08387 9.75137V4.24877Z" fill="white"/>
</svg>
